# xmcd CD database file generated by OrangeCD 5.2
#
# Track frame offsets:
#	150
#	19105
#	41400
#	63857
#	84621
#	105244
#	128800
#	144872
#	149749
#	166030
#	184913
#	186007
#
# Disc length: 2720 seconds
#
# Revision: 2
# Processed by: cddbd v1.5.1PL0 Copyright (c) Steve Scherf et al.
# Submitted via: OrangeCD 5.2
#
DISCID=990a9e0c
DTITLE=Emeline Michel - Rasin Kreyol
DYEAR=2004
DGENRE=Blues
TTITLE0=Bèl Kongo (Beautiful Congo)
TTITLE1=Ban'm la Jwa (Give Me Joy)
TTITLE2=Beni-Yo (Bless Them)
TTITLE3=Nasyon Solèy (Sun Nation)
TTITLE4=Karidad
TTITLE5=Non'm Sa (This Man)
TTITLE6=Zikap
TTITLE7=Interlude (Soufle Van)
TTITLE8=Lò'm Kanape (When I Will Stand Up)
TTITLE9=Bò Kote'w (By Your Side)
TTITLE10=Interlude (Mon Rêve)
TTITLE11=Mon Rêve
EXTD=
EXTT0=
EXTT1=
EXTT2=
EXTT3=
EXTT4=
EXTT5=
EXTT6=
EXTT7=
EXTT8=
EXTT9=
EXTT10=
EXTT11=
PLAYORDER=
